{"title":"Red.2010.BRRIP.720P.H264-ZEKTORM","uid":6092281,"size":2515426476,"categoryP":"video","categoryS":"hd___movies","magnet":"?xt=urn:btih:c3167ca565d0db5b528255d49b250079e4e62cce&amp;dn=Red.2010.BRRIP.720P.H264-ZEKTORM&amp;tr=udp%3A%2F%2Ftracker.openbittorrent.com%3A80&amp;tr=udp%3A%2F%2Fopen.demonii.com%3A1337&amp;tr=udp%3A%2F%2Ftracker.coppersurfer.tk%3A6969&amp;tr=udp%3A%2F%2Fexodus.desync.com%3A6969","seeders":0,"leechers":0,"uploader":"blowley","files":4,"time":1294616849,"description":"Title                            : Red\nYear                             : 2010\nGenre                            : Action | Comedy | Crime\niMDB URL                         : http://www.imdb.com/title/tt1245526/\n\nComplete name                    : Red.2010.BRRIP.720P.H264-ZEKTORM.mp4\nFormat                           : MPEG-4\nFormat profile                   : Base Media\nCodec ID                         : isom\nFile size                        : 2.34 GiB\nDuration                         : 1h 51mn\nOverall bit rate                 : 3017 Kbps\nSubtitles                        : English (Format: srt)\n\nVideo\nID                               : 1\nFormat                           : AVC\nFormat/Info                      : Advanced Video Codec\nFormat profile                   : &lt;a class=&quot;__cf_email__&quot; href=&quot;/cdn-cgi/l/email-protection&quot; data-cfemail=&quot;9cd4f5fbf4dcd0a8b2ac&quot;&gt;[email&amp;#160;protected]&lt;/a&gt;&lt;script cf-hash='f9e31' type=&quot;text/javascript&quot;&gt;\n/* &lt;![CDATA[ */!function(){try{var t=&quot;currentScript&quot;in document?document.currentScript:function(){for(var t=document.getElementsByTagName(&quot;script&quot;),e=t.length;e--;)if(t[e].getAttribute(&quot;cf-hash&quot;))return t[e]}();if(t&amp;&amp;t.previousSibling){var e,r,n,i,c=t.previousSibling,a=c.getAttribute(&quot;data-cfemail&quot;);if(a){for(e=&quot;&quot;,r=parseInt(a.substr(0,2),16),n=2;a.length-n;n+=2)i=parseInt(a.substr(n,2),16)^r,e+=String.fromCharCode(i);e=document.createTextNode(e),c.parentNode.replaceChild(e,c)}}}catch(u){}}();/* ]]&gt; */&lt;/script&gt;\nFormat settings, CABAC           : Yes\nFormat settings, ReFrames        : 5 frames\nCodec ID                         : avc1\nCodec ID/Info                    : Advanced Video Coding\nDuration                         : 1h 51mn\nBit rate mode                    : Variable\nBit rate                         : 2791 Kbps\nWidth                            : 1280 pixels\nHeight                           : 528 pixels\nDisplay aspect ratio             : 2.424\nFrame rate mode                  : Constant\nFrame rate                       : 23.976 fps\nResolution                       : 24 bits\nColorimetry                      : 4:2:0\nScan type                        : Progressive\nBits/(Pixel*Frame)               : 0.172\nStream size                      : 2.17 GiB (92%)\nTitle                            : Video\nWriting library                  : x264\n\nAudio\nID                               : 2\nFormat                           : AAC\nFormat/Info                      : Advanced Audio Codec\nFormat version                   : Version 4\nFormat profile                   : LC\nFormat settings, SBR             : Yes\nFormat settings, PS              : No\nCodec ID                         : 40\nDuration                         : 1h 51mn\nBit rate mode                    : Variable\nBit rate                         : 225 Kbps\nMaximum bit rate                 : 289 Kbps\nChannel(s)                       : 6 channels\nChannel positions                : Front: L C R, Rear: L R, LFE\nSampling rate                    : 48.0 KHz\nResolution                       : 16 bits\nStream size                      : 179 MiB (7%)\nLanguage                         : English\n\n\nScreenshots:\n &lt;a href=&quot;\nhttp://img687.imageshack.us/img687/7734/snapr1.png&quot; rel=&quot;nofollow&quot; target=&quot;_NEW&quot;&gt;\nhttp://img687.imageshack.us/img687/7734/snapr1.png&lt;/a&gt;\n &lt;a href=&quot;\nhttp://img683.imageshack.us/img683/4151/snapr2.png&quot; rel=&quot;nofollow&quot; target=&quot;_NEW&quot;&gt;\nhttp://img683.imageshack.us/img683/4151/snapr2.png&lt;/a&gt;\n &lt;a href=&quot;\nhttp://img684.imageshack.us/img684/3736/snapr3.png&quot; rel=&quot;nofollow&quot; target=&quot;_NEW&quot;&gt;\nhttp://img684.imageshack.us/img684/3736/snapr3.png&lt;/a&gt;\n &lt;a href=&quot;\nhttp://img195.imageshack.us/img195/4176/snapr4.png&quot; rel=&quot;nofollow&quot; target=&quot;_NEW&quot;&gt;\nhttp://img195.imageshack.us/img195/4176/snapr4.png&lt;/a&gt;\n","torrent":{"xt":"urn:btih:c3167ca565d0db5b528255d49b250079e4e62cce","amp;dn":"Red.2010.BRRIP.720P.H264-ZEKTORM","amp;tr":["udp%3A%2F%2Ftracker.openbittorrent.com%3A80","udp%3A%2F%2Fopen.demonii.com%3A1337","udp%3A%2F%2Ftracker.coppersurfer.tk%3A6969","udp%3A%2F%2Fexodus.desync.com%3A6969"],"infoHash":"c3167ca565d0db5b528255d49b250079e4e62cce","infoHashBuffer":{"type":"Buffer","data":[195,22,124,165,101,208,219,91,82,130,85,212,155,37,0,121,228,230,44,206]},"announce":[],"urlList":[]}}